<?xml version="1.0" encoding="utf-8" ?>
<svg baseProfile="full" height="672" version="1.1" width="894" xmlns="http://www.w3.org/2000/svg" xmlns:ev="http://www.w3.org/2001/xml-events" xmlns:xlink="http://www.w3.org/1999/xlink"><defs /><polygon fill="none" points="48.9804909678,36.90192147196 48.97097153227,36.90430596643 48.96173165676,36.90761204675 48.95286032632,36.91180787357 48.9444429767,36.91685303877 48.93656067158,36.92269895466 48.92928932188,36.92928932188 47.95857864376,37.9 47.0,37.9 46.99019828597,37.90048152733 46.9804909678,37.90192147196 46.97097153227,37.90430596643 46.96173165676,37.90761204675 46.95286032632,37.91180787357 46.9444429767,37.91685303877 46.93656067158,37.92269895466 46.92928932188,37.92928932188 45.95857864376,38.9 45.0,38.9 44.99019828597,38.90048152733 44.9804909678,38.90192147196 44.97097153227,38.90430596643 44.96173165676,38.90761204675 44.95286032632,38.91180787357 44.9444429767,38.91685303877 44.93656067158,38.92269895466 44.92928932188,38.92928932188 43.92928932188,39.92928932188 43.92269895466,39.93656067158 43.91685303877,39.9444429767 43.91180787357,39.95286032632 43.90761204675,39.96173165676 43.90430596643,39.97097153227 43.90192147196,39.9804909678 43.90048152733,39.99019828597 43.9,40.0 43.9,40.95857864376 40.92928932188,43.92928932188 40.92269895466,43.93656067158 40.91685303877,43.9444429767 40.91180787357,43.95286032632 40.90761204675,43.96173165676 40.90430596643,43.97097153227 40.90192147196,43.9804909678 40.90048152733,43.99019828597 40.9,44.0 40.9,45.95857864376 39.92928932188,46.92928932188 39.92269895466,46.93656067158 39.91685303877,46.9444429767 39.91180787357,46.95286032632 39.90761204675,46.96173165676 39.90430596643,46.97097153227 39.90192147196,46.9804909678 39.90048152733,46.99019828597 39.9,47.0 39.9,613.0 39.90048152733,613.00980171403 39.90192147196,613.0195090322 39.90430596643,613.02902846773 39.90761204675,613.03826834324 39.91180787357,613.04713967368 39.91685303877,613.0555570233 39.92269895466,613.06343932842 39.92928932188,613.07071067812 41.9,615.04142135624 41.9,617.0 41.90048152733,617.00980171403 41.90192147196,617.0195090322 41.90430596643,617.02902846773 41.90761204675,617.03826834324 41.91180787357,617.04713967368 41.91685303877,617.0555570233 41.92269895466,617.06343932842 41.92928932188,617.07071067812 45.92928932188,621.07071067812 45.93656067158,621.07730104534 45.9444429767,621.08314696123 45.95286032632,621.08819212643 45.96173165676,621.09238795325 45.97097153227,621.09569403357 45.9804909678,621.09807852804 45.99019828597,621.09951847267 46.0,621.1 47.95857864376,621.1 48.92928932188,622.07071067812 48.93656067158,622.07730104534 48.9444429767,622.08314696123 48.95286032632,622.08819212643 48.96173165676,622.09238795325 48.97097153227,622.09569403357 48.9804909678,622.09807852804 48.99019828597,622.09951847267 49.0,622.1 112.95857864376,622.1 113.9,623.04142135624 113.9,627.0 113.90048152733,627.00980171403 113.90192147196,627.0195090322 113.90430596643,627.02902846773 113.90761204675,627.03826834324 113.91180787357,627.04713967368 113.91685303877,627.0555570233 113.92269895466,627.06343932842 113.92928932188,627.07071067812 114.9,628.04142135624 114.9,630.0 114.90048152733,630.00980171403 114.90192147196,630.0195090322 114.90430596643,630.02902846773 114.90761204675,630.03826834324 114.91180787357,630.04713967368 114.91685303877,630.0555570233 114.92269895466,630.06343932842 114.92928932188,630.07071067812 115.9,631.04142135624 115.9,632.0 115.90048152733,632.00980171403 115.90192147196,632.0195090322 115.90430596643,632.02902846773 115.90761204675,632.03826834324 115.91180787357,632.04713967368 115.91685303877,632.0555570233 115.92269895466,632.06343932842 115.92928932188,632.07071067812 116.9,633.04142135624 116.9,634.0 116.90048152733,634.00980171403 116.90192147196,634.0195090322 116.90430596643,634.02902846773 116.90761204675,634.03826834324 116.91180787357,634.04713967368 116.91685303877,634.0555570233 116.92269895466,634.06343932842 116.92928932188,634.07071067812 119.92928932188,637.07071067812 119.93656067158,637.07730104534 119.9444429767,637.08314696123 119.95286032632,637.08819212643 119.96173165676,637.09238795325 119.97097153227,637.09569403357 119.9804909678,637.09807852804 119.99019828597,637.09951847267 120.0,637.1 120.95857864376,637.1 123.92928932188,640.07071067812 123.93656067158,640.07730104534 123.9444429767,640.08314696123 123.95286032632,640.08819212643 123.96173165676,640.09238795325 123.97097153227,640.09569403357 123.9804909678,640.09807852804 123.99019828597,640.09951847267 124.0,640.1 125.95857864376,640.1 126.92928932188,641.07071067812 126.93656067158,641.07730104534 126.9444429767,641.08314696123 126.95286032632,641.08819212643 126.96173165676,641.09238795325 126.97097153227,641.09569403357 126.9804909678,641.09807852804 126.99019828597,641.09951847267 127.0,641.1 131.95857864376,641.1 132.92928932188,642.07071067812 132.93656067158,642.07730104534 132.9444429767,642.08314696123 132.95286032632,642.08819212643 132.96173165676,642.09238795325 132.97097153227,642.09569403357 132.9804909678,642.09807852804 132.99019828597,642.09951847267 133.0,642.1 136.0,642.1 136.00980171403,642.09951847267 136.0195090322,642.09807852804 136.02902846773,642.09569403357 136.03826834324,642.09238795325 136.04713967368,642.08819212643 136.0555570233,642.08314696123 136.06343932842,642.07730104534 136.07071067812,642.07071067812 137.04142135624,641.1 142.0,641.1 142.00980171403,641.09951847267 142.0195090322,641.09807852804 142.02902846773,641.09569403357 142.03826834324,641.09238795325 142.04713967368,641.08819212643 142.0555570233,641.08314696123 142.06343932842,641.07730104534 142.07071067812,641.07071067812 143.04142135624,640.1 144.0,640.1 144.00980171403,640.09951847267 144.0195090322,640.09807852804 144.02902846773,640.09569403357 144.03826834324,640.09238795325 144.04713967368,640.08819212643 144.0555570233,640.08314696123 144.06343932842,640.07730104534 144.07071067812,640.07071067812 144.07730104534,640.06343932842 144.08314696123,640.0555570233 144.08819212643,640.04713967368 144.09238795325,640.03826834324 144.09569403357,640.02902846773 144.09807852804,640.0195090322 144.09951847267,640.00980171403 144.1,640.0 144.09951847267,639.99019828597 144.09807852804,639.9804909678 144.09569403357,639.97097153227 144.09238795325,639.96173165676 144.08819212643,639.95286032632 144.08314696123,639.9444429767 144.07730104534,639.93656067158 144.07071067812,639.92928932188 144.06343932842,639.92269895466 144.0555570233,639.91685303877 144.04713967368,639.91180787357 144.03826834324,639.90761204675 144.02902846773,639.90430596643 144.0195090322,639.90192147196 144.00980171403,639.90048152733 144.0,639.9 143.0,639.9 142.99019828597,639.90048152733 142.9804909678,639.90192147196 142.97097153227,639.90430596643 142.96173165676,639.90761204675 142.95286032632,639.91180787357 142.9444429767,639.91685303877 142.93656067158,639.92269895466 142.92928932188,639.92928932188 141.95857864376,640.9 137.0,640.9 136.99019828597,640.90048152733 136.9804909678,640.90192147196 136.97097153227,640.90430596643 136.96173165676,640.90761204675 136.95286032632,640.91180787357 136.9444429767,640.91685303877 136.93656067158,640.92269895466 136.92928932188,640.92928932188 135.95857864376,641.9 133.04142135624,641.9 132.07071067812,640.92928932188 132.06343932842,640.92269895466 132.0555570233,640.91685303877 132.04713967368,640.91180787357 132.03826834324,640.90761204675 132.02902846773,640.90430596643 132.0195090322,640.90192147196 132.00980171403,640.90048152733 132.0,640.9 127.04142135624,640.9 126.07071067812,639.92928932188 126.06343932842,639.92269895466 126.0555570233,639.91685303877 126.04713967368,639.91180787357 126.03826834324,639.90761204675 126.02902846773,639.90430596643 126.0195090322,639.90192147196 126.00980171403,639.90048152733 126.0,639.9 125.04142135624,639.9 122.07071067812,636.92928932188 122.06343932842,636.92269895466 122.0555570233,636.91685303877 122.04713967368,636.91180787357 122.03826834324,636.90761204675 122.02902846773,636.90430596643 122.0195090322,636.90192147196 122.00980171403,636.90048152733 122.0,636.9 121.04142135624,636.9 117.1,632.95857864376 117.1,632.0 117.09951847267,631.99019828597 117.09807852804,631.9804909678 117.09569403357,631.97097153227 117.09238795325,631.96173165676 117.08819212643,631.95286032632 117.08314696123,631.9444429767 117.07730104534,631.93656067158 117.07071067812,631.92928932188 115.1,629.95857864376 115.1,628.0 115.09951847267,627.99019828597 115.09807852804,627.9804909678 115.09569403357,627.97097153227 115.09238795325,627.96173165676 115.08819212643,627.95286032632 115.08314696123,627.9444429767 115.07730104534,627.93656067158 115.07071067812,627.92928932188 114.1,626.95857864376 114.1,622.0 114.09951847267,621.99019828597 114.09807852804,621.9804909678 114.09569403357,621.97097153227 114.09238795325,621.96173165676 114.08819212643,621.95286032632 114.08314696123,621.9444429767 114.07730104534,621.93656067158 114.07071067812,621.92928932188 114.06343932842,621.92269895466 114.0555570233,621.91685303877 114.04713967368,621.91180787357 114.03826834324,621.90761204675 114.02902846773,621.90430596643 114.0195090322,621.90192147196 114.00980171403,621.90048152733 114.0,621.9 49.04142135624,621.9 48.14142135624,621.0 49.04142135624,620.1 314.0,620.1 314.00980171403,620.09951847267 314.0195090322,620.09807852804 314.02902846773,620.09569403357 314.03826834324,620.09238795325 314.04713967368,620.08819212643 314.0555570233,620.08314696123 314.06343932842,620.07730104534 314.07071067812,620.07071067812 314.07730104534,620.06343932842 314.08314696123,620.0555570233 314.08819212643,620.04713967368 314.09238795325,620.03826834324 314.09569403357,620.02902846773 314.09807852804,620.0195090322 314.09951847267,620.00980171403 314.1,620.0 314.1,612.04142135624 315.0,611.14142135624 315.9,612.04142135624 315.9,620.0 315.90048152733,620.00980171403 315.90192147196,620.0195090322 315.90430596643,620.02902846773 315.90761204675,620.03826834324 315.91180787357,620.04713967368 315.91685303877,620.0555570233 315.92269895466,620.06343932842 315.92928932188,620.07071067812 315.93656067158,620.07730104534 315.9444429767,620.08314696123 315.95286032632,620.08819212643 315.96173165676,620.09238795325 315.97097153227,620.09569403357 315.9804909678,620.09807852804 315.99019828597,620.09951847267 316.0,620.1 844.0,620.1 844.00980171403,620.09951847267 844.0195090322,620.09807852804 844.02902846773,620.09569403357 844.03826834324,620.09238795325 844.04713967368,620.08819212643 844.0555570233,620.08314696123 844.06343932842,620.07730104534 844.07071067812,620.07071067812 845.04142135624,619.1 846.0,619.1 846.00980171403,619.09951847267 846.0195090322,619.09807852804 846.02902846773,619.09569403357 846.03826834324,619.09238795325 846.04713967368,619.08819212643 846.0555570233,619.08314696123 846.06343932842,619.07730104534 846.07071067812,619.07071067812 850.07071067812,615.07071067812 850.07730104534,615.06343932842 850.08314696123,615.0555570233 850.08819212643,615.04713967368 850.09238795325,615.03826834324 850.09569403357,615.02902846773 850.09807852804,615.0195090322 850.09951847267,615.00980171403 850.1,615.0 850.1,46.0 850.09951847267,45.99019828597 850.09807852804,45.9804909678 850.09569403357,45.97097153227 850.09238795325,45.96173165676 850.08819212643,45.95286032632 850.08314696123,45.9444429767 850.07730104534,45.93656067158 850.07071067812,45.92928932188 848.1,43.95857864376 848.1,43.0 848.09951847267,42.99019828597 848.09807852804,42.9804909678 848.09569403357,42.97097153227 848.09238795325,42.96173165676 848.08819212643,42.95286032632 848.08314696123,42.9444429767 848.07730104534,42.93656067158 848.07071067812,42.92928932188 846.07071067812,40.92928932188 846.06343932842,40.92269895466 846.0555570233,40.91685303877 846.04713967368,40.91180787357 846.03826834324,40.90761204675 846.02902846773,40.90430596643 846.0195090322,40.90192147196 846.00980171403,40.90048152733 846.0,40.9 845.04142135624,40.9 844.07071067812,39.92928932188 844.06343932842,39.92269895466 844.0555570233,39.91685303877 844.04713967368,39.91180787357 844.03826834324,39.90761204675 844.02902846773,39.90430596643 844.0195090322,39.90192147196 844.00980171403,39.90048152733 844.0,39.9 832.04142135624,39.9 831.07071067812,38.92928932188 831.06343932842,38.92269895466 831.0555570233,38.91685303877 831.04713967368,38.91180787357 831.03826834324,38.90761204675 831.02902846773,38.90430596643 831.0195090322,38.90192147196 831.00980171403,38.90048152733 831.0,38.9 743.0,38.9 742.99019828597,38.90048152733 742.9804909678,38.90192147196 742.97097153227,38.90430596643 742.96173165676,38.90761204675 742.95286032632,38.91180787357 742.9444429767,38.91685303877 742.93656067158,38.92269895466 742.92928932188,38.92928932188 742.0,39.85857864376 741.07071067812,38.92928932188 741.06343932842,38.92269895466 741.0555570233,38.91685303877 741.04713967368,38.91180787357 741.03826834324,38.90761204675 741.02902846773,38.90430596643 741.0195090322,38.90192147196 741.00980171403,38.90048152733 741.0,38.9 740.99019828597,38.90048152733 740.9804909678,38.90192147196 740.97097153227,38.90430596643 740.96173165676,38.90761204675 740.95286032632,38.91180787357 740.9444429767,38.91685303877 740.93656067158,38.92269895466 740.92928932188,38.92928932188 739.95857864376,39.9 738.04142135624,39.9 737.07071067812,38.92928932188 737.06343932842,38.92269895466 737.0555570233,38.91685303877 737.04713967368,38.91180787357 737.03826834324,38.90761204675 737.02902846773,38.90430596643 737.0195090322,38.90192147196 737.00980171403,38.90048152733 737.0,38.9 736.0,38.9 735.99019828597,38.90048152733 735.9804909678,38.90192147196 735.97097153227,38.90430596643 735.96173165676,38.90761204675 735.95286032632,38.91180787357 735.9444429767,38.91685303877 735.93656067158,38.92269895466 735.92928932188,38.92928932188 734.95857864376,39.9 728.04142135624,39.9 727.07071067812,38.92928932188 727.06343932842,38.92269895466 727.0555570233,38.91685303877 727.04713967368,38.91180787357 727.03826834324,38.90761204675 727.02902846773,38.90430596643 727.0195090322,38.90192147196 727.00980171403,38.90048152733 727.0,38.9 725.0,38.9 724.99019828597,38.90048152733 724.9804909678,38.90192147196 724.97097153227,38.90430596643 724.96173165676,38.90761204675 724.95286032632,38.91180787357 724.9444429767,38.91685303877 724.93656067158,38.92269895466 724.92928932188,38.92928932188 723.95857864376,39.9 721.04142135624,39.9 720.07071067812,38.92928932188 720.06343932842,38.92269895466 720.0555570233,38.91685303877 720.04713967368,38.91180787357 720.03826834324,38.90761204675 720.02902846773,38.90430596643 720.0195090322,38.90192147196 720.00980171403,38.90048152733 720.0,38.9 588.0,38.9 587.99019828597,38.90048152733 587.9804909678,38.90192147196 587.97097153227,38.90430596643 587.96173165676,38.90761204675 587.95286032632,38.91180787357 587.9444429767,38.91685303877 587.93656067158,38.92269895466 587.92928932188,38.92928932188 586.92928932188,39.92928932188 586.92269895466,39.93656067158 586.91685303877,39.9444429767 586.91180787357,39.95286032632 586.90761204675,39.96173165676 586.90430596643,39.97097153227 586.90192147196,39.9804909678 586.90048152733,39.99019828597 586.9,40.0 586.9,63.95857864376 585.92928932188,64.92928932188 585.92269895466,64.93656067158 585.91685303877,64.9444429767 585.91180787357,64.95286032632 585.90761204675,64.96173165676 585.90430596643,64.97097153227 585.90192147196,64.9804909678 585.90048152733,64.99019828597 585.9,65.0 585.9,97.0 585.90048152733,97.00980171403 585.90192147196,97.0195090322 585.90430596643,97.02902846773 585.90761204675,97.03826834324 585.91180787357,97.04713967368 585.91685303877,97.0555570233 585.92269895466,97.06343932842 585.92928932188,97.07071067812 586.9,98.04142135624 586.9,99.95857864376 586.0,100.85857864376 585.1,99.95857864376 585.1,99.0 585.09951847267,98.99019828597 585.09807852804,98.9804909678 585.09569403357,98.97097153227 585.09238795325,98.96173165676 585.08819212643,98.95286032632 585.08314696123,98.9444429767 585.07730104534,98.93656067158 585.07071067812,98.92928932188 584.1,97.95857864376 584.1,64.04142135624 585.07071067812,63.07071067812 585.07730104534,63.06343932842 585.08314696123,63.0555570233 585.08819212643,63.04713967368 585.09238795325,63.03826834324 585.09569403357,63.02902846773 585.09807852804,63.0195090322 585.09951847267,63.00980171403 585.1,63.0 585.1,40.0 585.09951847267,39.99019828597 585.09807852804,39.9804909678 585.09569403357,39.97097153227 585.09238795325,39.96173165676 585.08819212643,39.95286032632 585.08314696123,39.9444429767 585.07730104534,39.93656067158 585.07071067812,39.92928932188 584.07071067812,38.92928932188 584.06343932842,38.92269895466 584.0555570233,38.91685303877 584.04713967368,38.91180787357 584.03826834324,38.90761204675 584.02902846773,38.90430596643 584.0195090322,38.90192147196 584.00980171403,38.90048152733 584.0,38.9 453.0,38.9 452.99019828597,38.90048152733 452.9804909678,38.90192147196 452.97097153227,38.90430596643 452.96173165676,38.90761204675 452.95286032632,38.91180787357 452.9444429767,38.91685303877 452.93656067158,38.92269895466 452.92928932188,38.92928932188 452.0,39.85857864376 451.07071067812,38.92928932188 451.06343932842,38.92269895466 451.0555570233,38.91685303877 451.04713967368,38.91180787357 451.03826834324,38.90761204675 451.02902846773,38.90430596643 451.0195090322,38.90192147196 451.00980171403,38.90048152733 451.0,38.9 450.99019828597,38.90048152733 450.9804909678,38.90192147196 450.97097153227,38.90430596643 450.96173165676,38.90761204675 450.95286032632,38.91180787357 450.9444429767,38.91685303877 450.93656067158,38.92269895466 450.92928932188,38.92928932188 450.0,39.85857864376 449.07071067812,38.92928932188 449.06343932842,38.92269895466 449.0555570233,38.91685303877 449.04713967368,38.91180787357 449.03826834324,38.90761204675 449.02902846773,38.90430596643 449.0195090322,38.90192147196 449.00980171403,38.90048152733 449.0,38.9 376.0,38.9 375.99019828597,38.90048152733 375.9804909678,38.90192147196 375.97097153227,38.90430596643 375.96173165676,38.90761204675 375.95286032632,38.91180787357 375.9444429767,38.91685303877 375.93656067158,38.92269895466 375.92928932188,38.92928932188 374.95857864376,39.9 368.04142135624,39.9 367.07071067812,38.92928932188 367.06343932842,38.92269895466 367.0555570233,38.91685303877 367.04713967368,38.91180787357 367.03826834324,38.90761204675 367.02902846773,38.90430596643 367.0195090322,38.90192147196 367.00980171403,38.90048152733 367.0,38.9 317.0,38.9 316.99019828597,38.90048152733 316.9804909678,38.90192147196 316.97097153227,38.90430596643 316.96173165676,38.90761204675 316.95286032632,38.91180787357 316.9444429767,38.91685303877 316.93656067158,38.92269895466 316.92928932188,38.92928932188 315.95857864376,39.9 315.04142135624,39.9 314.07071067812,38.92928932188 314.06343932842,38.92269895466 314.0555570233,38.91685303877 314.04713967368,38.91180787357 314.03826834324,38.90761204675 314.02902846773,38.90430596643 314.0195090322,38.90192147196 314.00980171403,38.90048152733 314.0,38.9 313.99019828597,38.90048152733 313.9804909678,38.90192147196 313.97097153227,38.90430596643 313.96173165676,38.90761204675 313.95286032632,38.91180787357 313.9444429767,38.91685303877 313.93656067158,38.92269895466 313.92928932188,38.92928932188 313.0,39.85857864376 312.07071067812,38.92928932188 312.06343932842,38.92269895466 312.0555570233,38.91685303877 312.04713967368,38.91180787357 312.03826834324,38.90761204675 312.02902846773,38.90430596643 312.0195090322,38.90192147196 312.00980171403,38.90048152733 312.0,38.9 272.0,38.9 271.99019828597,38.90048152733 271.9804909678,38.90192147196 271.97097153227,38.90430596643 271.96173165676,38.90761204675 271.95286032632,38.91180787357 271.9444429767,38.91685303877 271.93656067158,38.92269895466 271.92928932188,38.92928932188 270.95857864376,39.9 257.04142135624,39.9 256.07071067812,38.92928932188 256.06343932842,38.92269895466 256.0555570233,38.91685303877 256.04713967368,38.91180787357 256.03826834324,38.90761204675 256.02902846773,38.90430596643 256.0195090322,38.90192147196 256.00980171403,38.90048152733 256.0,38.9 201.0,38.9 200.99019828597,38.90048152733 200.9804909678,38.90192147196 200.97097153227,38.90430596643 200.96173165676,38.90761204675 200.95286032632,38.91180787357 200.9444429767,38.91685303877 200.93656067158,38.92269895466 200.92928932188,38.92928932188 199.95857864376,39.9 184.04142135624,39.9 183.07071067812,38.92928932188 183.06343932842,38.92269895466 183.0555570233,38.91685303877 183.04713967368,38.91180787357 183.03826834324,38.90761204675 183.02902846773,38.90430596643 183.0195090322,38.90192147196 183.00980171403,38.90048152733 183.0,38.9 182.0,38.9 181.99019828597,38.90048152733 181.9804909678,38.90192147196 181.97097153227,38.90430596643 181.96173165676,38.90761204675 181.95286032632,38.91180787357 181.9444429767,38.91685303877 181.93656067158,38.92269895466 181.92928932188,38.92928932188 180.95857864376,39.9 180.0,39.9 179.99019828597,39.90048152733 179.9804909678,39.90192147196 179.97097153227,39.90430596643 179.96173165676,39.90761204675 179.95286032632,39.91180787357 179.9444429767,39.91685303877 179.93656067158,39.92269895466 179.92928932188,39.92928932188 179.92269895466,39.93656067158 179.91685303877,39.9444429767 179.91180787357,39.95286032632 179.90761204675,39.96173165676 179.90430596643,39.97097153227 179.90192147196,39.9804909678 179.90048152733,39.99019828597 179.9,40.0 179.9,42.95857864376 179.0,43.85857864376 178.1,42.95857864376 178.1,40.0 178.09951847267,39.99019828597 178.09807852804,39.9804909678 178.09569403357,39.97097153227 178.09238795325,39.96173165676 178.08819212643,39.95286032632 178.08314696123,39.9444429767 178.07730104534,39.93656067158 178.07071067812,39.92928932188 177.07071067812,38.92928932188 177.06343932842,38.92269895466 177.0555570233,38.91685303877 177.04713967368,38.91180787357 177.03826834324,38.90761204675 177.02902846773,38.90430596643 177.0195090322,38.90192147196 177.00980171403,38.90048152733 177.0,38.9 55.0,38.9 54.99019828597,38.90048152733 54.9804909678,38.90192147196 54.97097153227,38.90430596643 54.96173165676,38.90761204675 54.95286032632,38.91180787357 54.9444429767,38.91685303877 54.93656067158,38.92269895466 54.92928932188,38.92928932188 54.0,39.85857864376 53.07071067812,38.92928932188 53.06343932842,38.92269895466 53.0555570233,38.91685303877 53.04713967368,38.91180787357 53.03826834324,38.90761204675 53.02902846773,38.90430596643 53.0195090322,38.90192147196 53.00980171403,38.90048152733 53.0,38.9 51.0,38.9 50.99019828597,38.90048152733 50.9804909678,38.90192147196 50.97097153227,38.90430596643 50.96173165676,38.90761204675 50.95286032632,38.91180787357 50.9444429767,38.91685303877 50.93656067158,38.92269895466 50.92928932188,38.92928932188 49.95857864376,39.9 49.0,39.9 48.99019828597,39.90048152733 48.9804909678,39.90192147196 48.97097153227,39.90430596643 48.96173165676,39.90761204675 48.95286032632,39.91180787357 48.9444429767,39.91685303877 48.93656067158,39.92269895466 48.92928932188,39.92928932188 48.92269895466,39.93656067158 48.91685303877,39.9444429767 48.91180787357,39.95286032632 48.90761204675,39.96173165676 48.90430596643,39.97097153227 48.90192147196,39.9804909678 48.90048152733,39.99019828597 48.9,40.0 48.90048152733,40.00980171403 48.90192147196,40.0195090322 48.90430596643,40.02902846773 48.90761204675,40.03826834324 48.91180787357,40.04713967368 48.91685303877,40.0555570233 48.92269895466,40.06343932842 48.92928932188,40.07071067812 48.93656067158,40.07730104534 48.9444429767,40.08314696123 48.95286032632,40.08819212643 48.96173165676,40.09238795325 48.97097153227,40.09569403357 48.9804909678,40.09807852804 48.99019828597,40.09951847267 49.0,40.1 50.0,40.1 50.00980171403,40.09951847267 50.0195090322,40.09807852804 50.02902846773,40.09569403357 50.03826834324,40.09238795325 50.04713967368,40.08819212643 50.0555570233,40.08314696123 50.06343932842,40.07730104534 50.07071067812,40.07071067812 51.04142135624,39.1 52.95857864376,39.1 53.92928932188,40.07071067812 53.93656067158,40.07730104534 53.9444429767,40.08314696123 53.95286032632,40.08819212643 53.96173165676,40.09238795325 53.97097153227,40.09569403357 53.9804909678,40.09807852804 53.99019828597,40.09951847267 54.0,40.1 54.00980171403,40.09951847267 54.0195090322,40.09807852804 54.02902846773,40.09569403357 54.03826834324,40.09238795325 54.04713967368,40.08819212643 54.0555570233,40.08314696123 54.06343932842,40.07730104534 54.07071067812,40.07071067812 55.04142135624,39.1 176.95857864376,39.1 177.9,40.04142135624 177.9,43.0 177.90048152733,43.00980171403 177.90192147196,43.0195090322 177.90430596643,43.02902846773 177.90761204675,43.03826834324 177.91180787357,43.04713967368 177.91685303877,43.0555570233 177.92269895466,43.06343932842 177.92928932188,43.07071067812 178.9,44.04142135624 178.9,62.0 178.90048152733,62.00980171403 178.90192147196,62.0195090322 178.90430596643,62.02902846773 178.90761204675,62.03826834324 178.91180787357,62.04713967368 178.91685303877,62.0555570233 178.92269895466,62.06343932842 178.92928932188,62.07071067812 179.9,63.04142135624 179.9,90.95857864376 177.92928932188,92.92928932188 177.92269895466,92.93656067158 177.91685303877,92.9444429767 177.91180787357,92.95286032632 177.90761204675,92.96173165676 177.90430596643,92.97097153227 177.90192147196,92.9804909678 177.90048152733,92.99019828597 177.9,93.0 177.9,93.95857864376 175.95857864376,95.9 169.04142135624,95.9 168.07071067812,94.92928932188 168.06343932842,94.92269895466 168.0555570233,94.91685303877 168.04713967368,94.91180787357 168.03826834324,94.90761204675 168.02902846773,94.90430596643 168.0195090322,94.90192147196 168.00980171403,94.90048152733 168.0,94.9 166.04142135624,94.9 164.07071067812,92.92928932188 164.06343932842,92.92269895466 164.0555570233,92.91685303877 164.04713967368,92.91180787357 164.03826834324,92.90761204675 164.02902846773,92.90430596643 164.0195090322,92.90192147196 164.00980171403,92.90048152733 164.0,92.9 163.04142135624,92.9 162.07071067812,91.92928932188 162.06343932842,91.92269895466 162.0555570233,91.91685303877 162.04713967368,91.91180787357 162.03826834324,91.90761204675 162.02902846773,91.90430596643 162.0195090322,91.90192147196 162.00980171403,91.90048152733 162.0,91.9 161.04142135624,91.9 160.07071067812,90.92928932188 160.06343932842,90.92269895466 160.0555570233,90.91685303877 160.04713967368,90.91180787357 160.03826834324,90.90761204675 160.02902846773,90.90430596643 160.0195090322,90.90192147196 160.00980171403,90.90048152733 160.0,90.9 159.04142135624,90.9 158.07071067812,89.92928932188 158.06343932842,89.92269895466 158.0555570233,89.91685303877 158.04713967368,89.91180787357 158.03826834324,89.90761204675 158.02902846773,89.90430596643 158.0195090322,89.90192147196 158.00980171403,89.90048152733 158.0,89.9 154.04142135624,89.9 153.07071067812,88.92928932188 153.06343932842,88.92269895466 153.0555570233,88.91685303877 153.04713967368,88.91180787357 153.03826834324,88.90761204675 153.02902846773,88.90430596643 153.0195090322,88.90192147196 153.00980171403,88.90048152733 153.0,88.9 151.0,88.9 150.99019828597,88.90048152733 150.9804909678,88.90192147196 150.97097153227,88.90430596643 150.96173165676,88.90761204675 150.95286032632,88.91180787357 150.9444429767,88.91685303877 150.93656067158,88.92269895466 150.92928932188,88.92928932188 149.95857864376,89.9 147.0,89.9 146.99019828597,89.90048152733 146.9804909678,89.90192147196 146.97097153227,89.90430596643 146.96173165676,89.90761204675 146.95286032632,89.91180787357 146.9444429767,89.91685303877 146.93656067158,89.92269895466 146.92928932188,89.92928932188 145.95857864376,90.9 145.0,90.9 144.99019828597,90.90048152733 144.9804909678,90.90192147196 144.97097153227,90.90430596643 144.96173165676,90.90761204675 144.95286032632,90.91180787357 144.9444429767,90.91685303877 144.93656067158,90.92269895466 144.92928932188,90.92928932188 143.95857864376,91.9 143.0,91.9 142.99019828597,91.90048152733 142.9804909678,91.90192147196 142.97097153227,91.90430596643 142.96173165676,91.90761204675 142.95286032632,91.91180787357 142.9444429767,91.91685303877 142.93656067158,91.92269895466 142.92928932188,91.92928932188 138.92928932188,95.92928932188 138.92269895466,95.93656067158 138.91685303877,95.9444429767 138.91180787357,95.95286032632 138.90761204675,95.96173165676 138.90430596643,95.97097153227 138.90192147196,95.9804909678 138.90048152733,95.99019828597 138.9,96.0 138.9,96.95857864376 137.92928932188,97.92928932188 137.92269895466,97.93656067158 137.91685303877,97.9444429767 137.91180787357,97.95286032632 137.90761204675,97.96173165676 137.90430596643,97.97097153227 137.90192147196,97.9804909678 137.90048152733,97.99019828597 137.9,98.0 137.9,99.95857864376 136.92928932188,100.92928932188 136.92269895466,100.93656067158 136.91685303877,100.9444429767 136.91180787357,100.95286032632 136.90761204675,100.96173165676 136.90430596643,100.97097153227 136.90192147196,100.9804909678 136.90048152733,100.99019828597 136.9,101.0 136.9,102.95857864376 135.92928932188,103.92928932188 135.92269895466,103.93656067158 135.91685303877,103.9444429767 135.91180787357,103.95286032632 135.90761204675,103.96173165676 135.90430596643,103.97097153227 135.90192147196,103.9804909678 135.90048152733,103.99019828597 135.9,104.0 135.9,110.0 135.90048152733,110.00980171403 135.90192147196,110.0195090322 135.90430596643,110.02902846773 135.90761204675,110.03826834324 135.91180787357,110.04713967368 135.91685303877,110.0555570233 135.92269895466,110.06343932842 135.92928932188,110.07071067812 136.9,111.04142135624 136.9,113.0 136.90048152733,113.00980171403 136.90192147196,113.0195090322 136.90430596643,113.02902846773 136.90761204675,113.03826834324 136.91180787357,113.04713967368 136.91685303877,113.0555570233 136.92269895466,113.06343932842 136.92928932188,113.07071067812 137.9,114.04142135624 137.9,115.0 137.90048152733,115.00980171403 137.90192147196,115.0195090322 137.90430596643,115.02902846773 137.90761204675,115.03826834324 137.91180787357,115.04713967368 137.91685303877,115.0555570233 137.92269895466,115.06343932842 137.92928932188,115.07071067812 138.9,116.04142135624 138.9,117.0 138.90048152733,117.00980171403 138.90192147196,117.0195090322 138.90430596643,117.02902846773 138.90761204675,117.03826834324 138.91180787357,117.04713967368 138.91685303877,117.0555570233 138.92269895466,117.06343932842 138.92928932188,117.07071067812 139.9,118.04142135624 139.9,119.0 139.90048152733,119.00980171403 139.90192147196,119.0195090322 139.90430596643,119.02902846773 139.90761204675,119.03826834324 139.91180787357,119.04713967368 139.91685303877,119.0555570233 139.92269895466,119.06343932842 139.92928932188,119.07071067812 144.92928932188,124.07071067812 144.93656067158,124.07730104534 144.9444429767,124.08314696123 144.95286032632,124.08819212643 144.96173165676,124.09238795325 144.97097153227,124.09569403357 144.9804909678,124.09807852804 144.99019828597,124.09951847267 145.0,124.1 145.95857864376,124.1 146.92928932188,125.07071067812 146.93656067158,125.07730104534 146.9444429767,125.08314696123 146.95286032632,125.08819212643 146.96173165676,125.09238795325 146.97097153227,125.09569403357 146.9804909678,125.09807852804 146.99019828597,125.09951847267 147.0,125.1 147.95857864376,125.1 148.92928932188,126.07071067812 148.93656067158,126.07730104534 148.9444429767,126.08314696123 148.95286032632,126.08819212643 148.96173165676,126.09238795325 148.97097153227,126.09569403357 148.9804909678,126.09807852804 148.99019828597,126.09951847267 149.0,126.1 150.95857864376,126.1 151.92928932188,127.07071067812 151.93656067158,127.07730104534 151.9444429767,127.08314696123 151.95286032632,127.08819212643 151.96173165676,127.09238795325 151.97097153227,127.09569403357 151.9804909678,127.09807852804 151.99019828597,127.09951847267 152.0,127.1 153.95857864376,127.1 154.92928932188,128.07071067812 154.93656067158,128.07730104534 154.9444429767,128.08314696123 154.95286032632,128.08819212643 154.96173165676,128.09238795325 154.97097153227,128.09569403357 154.9804909678,128.09807852804 154.99019828597,128.09951847267 155.0,128.1 163.0,128.1 163.00980171403,128.09951847267 163.0195090322,128.09807852804 163.02902846773,128.09569403357 163.03826834324,128.09238795325 163.04713967368,128.08819212643 163.0555570233,128.08314696123 163.06343932842,128.07730104534 163.07071067812,128.07071067812 164.04142135624,127.1 174.95857864376,127.1 178.9,131.04142135624 178.9,168.95857864376 177.92928932188,169.92928932188 177.92269895466,169.93656067158 177.91685303877,169.9444429767 177.91180787357,169.95286032632 177.90761204675,169.96173165676 177.90430596643,169.97097153227 177.90192147196,169.9804909678 177.90048152733,169.99019828597 177.9,170.0 177.9,178.95857864376 175.95857864376,180.9 170.0,180.9 169.99019828597,180.90048152733 169.9804909678,180.90192147196 169.97097153227,180.90430596643 169.96173165676,180.90761204675 169.95286032632,180.91180787357 169.9444429767,180.91685303877 169.93656067158,180.92269895466 169.92928932188,180.92928932188 168.95857864376,181.9 162.0,181.9 161.99019828597,181.90048152733 161.9804909678,181.90192147196 161.97097153227,181.90430596643 161.96173165676,181.90761204675 161.95286032632,181.91180787357 161.9444429767,181.91685303877 161.93656067158,181.92269895466 161.92928932188,181.92928932188 160.95857864376,182.9 152.0,182.9 151.99019828597,182.90048152733 151.9804909678,182.90192147196 151.97097153227,182.90430596643 151.96173165676,182.90761204675 151.95286032632,182.91180787357 151.9444429767,182.91685303877 151.93656067158,182.92269895466 151.92928932188,182.92928932188 150.95857864376,183.9 144.0,183.9 143.99019828597,183.90048152733 143.9804909678,183.90192147196 143.97097153227,183.90430596643 143.96173165676,183.90761204675 143.95286032632,183.91180787357 143.9444429767,183.91685303877 143.93656067158,183.92269895466 143.92928932188,183.92928932188 142.95857864376,184.9 128.0,184.9 127.99019828597,184.90048152733 127.9804909678,184.90192147196 127.97097153227,184.90430596643 127.96173165676,184.90761204675 127.95286032632,184.91180787357 127.9444429767,184.91685303877 127.93656067158,184.92269895466 127.92928932188,184.92928932188 126.95857864376,185.9 124.0,185.9 123.99019828597,185.90048152733 123.9804909678,185.90192147196 123.97097153227,185.90430596643 123.96173165676,185.90761204675 123.95286032632,185.91180787357 123.9444429767,185.91685303877 123.93656067158,185.92269895466 123.92928932188,185.92928932188 122.95857864376,186.9 121.0,186.9 120.99019828597,186.90048152733 120.9804909678,186.90192147196 120.97097153227,186.90430596643 120.96173165676,186.90761204675 120.95286032632,186.91180787357 120.9444429767,186.91685303877 120.93656067158,186.92269895466 120.92928932188,186.92928932188 118.92928932188,188.92928932188 118.92269895466,188.93656067158 118.91685303877,188.9444429767 118.91180787357,188.95286032632 118.90761204675,188.96173165676 118.90430596643,188.97097153227 118.90192147196,188.9804909678 118.90048152733,188.99019828597 118.9,189.0 118.90048152733,189.00980171403 118.90192147196,189.0195090322 118.90430596643,189.02902846773 118.90761204675,189.03826834324 118.91180787357,189.04713967368 118.91685303877,189.0555570233 118.92269895466,189.06343932842 118.92928932188,189.07071067812 118.93656067158,189.07730104534 118.9444429767,189.08314696123 118.95286032632,189.08819212643 118.96173165676,189.09238795325 118.97097153227,189.09569403357 118.9804909678,189.09807852804 118.99019828597,189.09951847267 119.0,189.1 119.00980171403,189.09951847267 119.0195090322,189.09807852804 119.02902846773,189.09569403357 119.03826834324,189.09238795325 119.04713967368,189.08819212643 119.0555570233,189.08314696123 119.06343932842,189.07730104534 119.07071067812,189.07071067812 120.04142135624,188.1 121.0,188.1 121.00980171403,188.09951847267 121.0195090322,188.09807852804 121.02902846773,188.09569403357 121.03826834324,188.09238795325 121.04713967368,188.08819212643 121.0555570233,188.08314696123 121.06343932842,188.07730104534 121.07071067812,188.07071067812 122.04142135624,187.1 123.0,187.1 123.00980171403,187.09951847267 123.0195090322,187.09807852804 123.02902846773,187.09569403357 123.03826834324,187.09238795325 123.04713967368,187.08819212643 123.0555570233,187.08314696123 123.06343932842,187.07730104534 123.07071067812,187.07071067812 124.04142135624,186.1 127.0,186.1 127.00980171403,186.09951847267 127.0195090322,186.09807852804 127.02902846773,186.09569403357 127.03826834324,186.09238795325 127.04713967368,186.08819212643 127.0555570233,186.08314696123 127.06343932842,186.07730104534 127.07071067812,186.07071067812 128.04142135624,185.1 143.0,185.1 143.00980171403,185.09951847267 143.0195090322,185.09807852804 143.02902846773,185.09569403357 143.03826834324,185.09238795325 143.04713967368,185.08819212643 143.0555570233,185.08314696123 143.06343932842,185.07730104534 143.07071067812,185.07071067812 144.04142135624,184.1 151.0,184.1 151.00980171403,184.09951847267 151.0195090322,184.09807852804 151.02902846773,184.09569403357 151.03826834324,184.09238795325 151.04713967368,184.08819212643 151.0555570233,184.08314696123 151.06343932842,184.07730104534 151.07071067812,184.07071067812 152.04142135624,183.1 161.0,183.1 161.00980171403,183.09951847267 161.0195090322,183.09807852804 161.02902846773,183.09569403357 161.03826834324,183.09238795325 161.04713967368,183.08819212643 161.0555570233,183.08314696123 161.06343932842,183.07730104534 161.07071067812,183.07071067812 162.04142135624,182.1 169.0,182.1 169.00980171403,182.09951847267 169.0195090322,182.09807852804 169.02902846773,182.09569403357 169.03826834324,182.09238795325 169.04713967368,182.08819212643 169.0555570233,182.08314696123 169.06343932842,182.07730104534 169.07071067812,182.07071067812 170.04142135624,181.1 176.0,181.1 176.00980171403,181.09951847267 176.0195090322,181.09807852804 176.02902846773,181.09569403357 176.03826834324,181.09238795325 176.04713967368,181.08819212643 176.0555570233,181.08314696123 176.06343932842,181.07730104534 176.07071067812,181.07071067812 177.0,180.14142135624 177.9,181.04142135624 177.9,181.95857864376 176.95857864376,182.9 172.0,182.9 171.99019828597,182.90048152733 171.9804909678,182.90192147196 171.97097153227,182.90430596643 171.96173165676,182.90761204675 171.95286032632,182.91180787357 171.9444429767,182.91685303877 171.93656067158,182.92269895466 171.92928932188,182.92928932188 170.95857864376,183.9 165.0,183.9 164.99019828597,183.90048152733 164.9804909678,183.90192147196 164.97097153227,183.90430596643 164.96173165676,183.90761204675 164.95286032632,183.91180787357 164.9444429767,183.91685303877 164.93656067158,183.92269895466 164.92928932188,183.92928932188 163.95857864376,184.9 156.0,184.9 155.99019828597,184.90048152733 155.9804909678,184.90192147196 155.97097153227,184.90430596643 155.96173165676,184.90761204675 155.95286032632,184.91180787357 155.9444429767,184.91685303877 155.93656067158,184.92269895466 155.92928932188,184.92928932188 154.95857864376,185.9 146.0,185.9 145.99019828597,185.90048152733 145.9804909678,185.90192147196 145.97097153227,185.90430596643 145.96173165676,185.90761204675 145.95286032632,185.91180787357 145.9444429767,185.91685303877 145.93656067158,185.92269895466 145.92928932188,185.92928932188 144.95857864376,186.9 132.0,186.9 131.99019828597,186.90048152733 131.9804909678,186.90192147196 131.97097153227,186.90430596643 131.96173165676,186.90761204675 131.95286032632,186.91180787357 131.9444429767,186.91685303877 131.93656067158,186.92269895466 131.92928932188,186.92928932188 130.95857864376,187.9 125.0,187.9 124.99019828597,187.90048152733 124.9804909678,187.90192147196 124.97097153227,187.90430596643 124.96173165676,187.90761204675 124.95286032632,187.91180787357 124.9444429767,187.91685303877 124.93656067158,187.92269895466 124.92928932188,187.92928932188 123.95857864376,188.9 123.0,188.9 122.99019828597,188.90048152733 122.9804909678,188.90192147196 122.97097153227,188.90430596643 122.96173165676,188.90761204675 122.95286032632,188.91180787357 122.9444429767,188.91685303877 122.93656067158,188.92269895466 122.92928932188,188.92928932188 121.95857864376,189.9 121.0,189.9 120.99019828597,189.90048152733 120.9804909678,189.90192147196 120.97097153227,189.90430596643 120.96173165676,189.90761204675 120.95286032632,189.91180787357 120.9444429767,189.91685303877 120.93656067158,189.92269895466 120.92928932188,189.92928932188 119.92928932188,190.92928932188 119.92269895466,190.93656067158 119.91685303877,190.9444429767 119.91180787357,190.95286032632 119.90761204675,190.96173165676 119.90430596643,190.97097153227 119.90192147196,190.9804909678 119.90048152733,190.99019828597 119.9,191.0 119.9,194.0 119.90048152733,194.00980171403 119.90192147196,194.0195090322 119.90430596643,194.02902846773 119.90761204675,194.03826834324 119.91180787357,194.04713967368 119.91685303877,194.0555570233 119.92269895466,194.06343932842 119.92928932188,194.07071067812 120.9,195.04142135624 120.9,196.0 120.90048152733,196.00980171403 120.90192147196,196.0195090322 120.90430596643,196.02902846773 120.90761204675,196.03826834324 120.91180787357,196.04713967368 120.91685303877,196.0555570233 120.92269895466,196.06343932842 120.92928932188,196.07071067812 122.9,198.04142135624 122.9,199.0 122.90048152733,199.00980171403 122.90192147196,199.0195090322 122.90430596643,199.02902846773 122.90761204675,199.03826834324 122.91180787357,199.04713967368 122.91685303877,199.0555570233 122.92269895466,199.06343932842 122.92928932188,199.07071067812 124.9,201.04142135624 124.9,202.0 124.90048152733,202.00980171403 124.90192147196,202.0195090322 124.90430596643,202.02902846773 124.90761204675,202.03826834324 124.91180787357,202.04713967368 124.91685303877,202.0555570233 124.92269895466,202.06343932842 124.92928932188,202.07071067812 125.9,203.04142135624 125.9,204.0 125.90048152733,204.00980171403 125.90192147196,204.0195090322 125.90430596643,204.02902846773 125.90761204675,204.03826834324 125.91180787357,204.04713967368 125.91685303877,204.0555570233 125.92269895466,204.06343932842 125.92928932188,204.07071067812 126.9,205.04142135624 126.9,207.95857864376 126.0,208.85857864376 125.1,207.95857864376 125.1,206.0 125.09951847267,205.99019828597 125.09807852804,205.9804909678 125.09569403357,205.97097153227 125.09238795325,205.96173165676 125.08819212643,205.95286032632 125.08314696123,205.9444429767 125.07730104534,205.93656067158 125.07071067812,205.92928932188 124.1,204.95857864376 124.1,204.0 124.09951847267,203.99019828597 124.09807852804,203.9804909678 124.09569403357,203.97097153227 124.09238795325,203.96173165676 124.08819212643,203.95286032632 124.08314696123,203.9444429767 124.07730104534,203.93656067158 124.07071067812,203.92928932188 123.1,202.95857864376 123.1,202.0 123.09951847267,201.99019828597 123.09807852804,201.9804909678 123.09569403357,201.97097153227 123.09238795325,201.96173165676 123.08819212643,201.95286032632 123.08314696123,201.9444429767 123.07730104534,201.93656067158 123.07071067812,201.92928932188 121.1,199.95857864376 121.1,199.0 121.09951847267,198.99019828597 121.09807852804,198.9804909678 121.09569403357,198.97097153227 121.09238795325,198.96173165676 121.08819212643,198.95286032632 121.08314696123,198.9444429767 121.07730104534,198.93656067158 121.07071067812,198.92928932188 119.1,196.95857864376 119.1,196.0 119.09951847267,195.99019828597 119.09807852804,195.9804909678 119.09569403357,195.97097153227 119.09238795325,195.96173165676 119.08819212643,195.95286032632 119.08314696123,195.9444429767 119.07730104534,195.93656067158 119.07071067812,195.92928932188 118.1,194.95857864376 118.1,191.0 118.09951847267,190.99019828597 118.09807852804,190.9804909678 118.09569403357,190.97097153227 118.09238795325,190.96173165676 118.08819212643,190.95286032632 118.08314696123,190.9444429767 118.07730104534,190.93656067158 118.07071067812,190.92928932188 118.06343932842,190.92269895466 118.0555570233,190.91685303877 118.04713967368,190.91180787357 118.03826834324,190.90761204675 118.02902846773,190.90430596643 118.0195090322,190.90192147196 118.00980171403,190.90048152733 118.0,190.9 117.99019828597,190.90048152733 117.9804909678,190.90192147196 117.97097153227,190.90430596643 117.96173165676,190.90761204675 117.95286032632,190.91180787357 117.9444429767,190.91685303877 117.93656067158,190.92269895466 117.92928932188,190.92928932188 117.92269895466,190.93656067158 117.91685303877,190.9444429767 117.91180787357,190.95286032632 117.90761204675,190.96173165676 117.90430596643,190.97097153227 117.90192147196,190.9804909678 117.90048152733,190.99019828597 117.9,191.0 117.9,195.0 117.90048152733,195.00980171403 117.90192147196,195.0195090322 117.90430596643,195.02902846773 117.90761204675,195.03826834324 117.91180787357,195.04713967368 117.91685303877,195.0555570233 117.92269895466,195.06343932842 117.92928932188,195.07071067812 118.9,196.04142135624 118.9,197.0 118.90048152733,197.00980171403 118.90192147196,197.0195090322 118.90430596643,197.02902846773 118.90761204675,197.03826834324 118.91180787357,197.04713967368 118.91685303877,197.0555570233 118.92269895466,197.06343932842 118.92928932188,197.07071067812 119.9,198.04142135624 119.9,199.0 119.90048152733,199.00980171403 119.90192147196,199.0195090322 119.90430596643,199.02902846773 119.90761204675,199.03826834324 119.91180787357,199.04713967368 119.91685303877,199.0555570233 119.92269895466,199.06343932842 119.92928932188,199.07071067812 121.9,201.04142135624 121.9,202.0 121.90048152733,202.00980171403 121.90192147196,202.0195090322 121.90430596643,202.02902846773 121.90761204675,202.03826834324 121.91180787357,202.04713967368 121.91685303877,202.0555570233 121.92269895466,202.06343932842 121.92928932188,202.07071067812 123.9,204.04142135624 123.9,205.0 123.90048152733,205.00980171403 123.90192147196,205.0195090322 123.90430596643,205.02902846773 123.90761204675,205.03826834324 123.91180787357,205.04713967368 123.91685303877,205.0555570233 123.92269895466,205.06343932842 123.92928932188,205.07071067812 124.9,206.04142135624 124.9,208.0 124.90048152733,208.00980171403 124.90192147196,208.0195090322 124.90430596643,208.02902846773 124.90761204675,208.03826834324 124.91180787357,208.04713967368 124.91685303877,208.0555570233 124.92269895466,208.06343932842 124.92928932188,208.07071067812 125.9,209.04142135624 125.9,213.95857864376 124.92928932188,214.92928932188 124.92269895466,214.93656067158 124.91685303877,214.9444429767 124.91180787357,214.95286032632 124.90761204675,214.96173165676 124.90430596643,214.97097153227 124.90192147196,214.9804909678 124.90048152733,214.99019828597 124.9,215.0 124.9,216.95857864376 123.92928932188,217.92928932188 123.92269895466,217.93656067158 123.91685303877,217.9444429767 123.91180787357,217.95286032632 123.90761204675,217.96173165676 123.90430596643,217.97097153227 123.90192147196,217.9804909678 123.90048152733,217.99019828597 123.9,218.0 123.9,218.95857864376 121.92928932188,220.92928932188 121.92269895466,220.93656067158 121.91685303877,220.9444429767 121.91180787357,220.95286032632 121.90761204675,220.96173165676 121.90430596643,220.97097153227 121.90192147196,220.9804909678 121.90048152733,220.99019828597 121.9,221.0 121.9,221.95857864376 119.95857864376,223.9 119.0,223.9 118.99019828597,223.90048152733 118.9804909678,223.90192147196 118.97097153227,223.90430596643 118.96173165676,223.90761204675 118.95286032632,223.91180787357 118.9444429767,223.91685303877 118.93656067158,223.92269895466 118.92928932188,223.92928932188 116.95857864376,225.9 116.0,225.9 115.99019828597,225.90048152733 115.9804909678,225.90192147196 115.97097153227,225.90430596643 115.96173165676,225.90761204675 115.95286032632,225.91180787357 115.9444429767,225.91685303877 115.93656067158,225.92269895466 115.92928932188,225.92928932188 114.95857864376,226.9 104.04142135624,226.9 103.07071067812,225.92928932188 103.06343932842,225.92269895466 103.0555570233,225.91685303877 103.04713967368,225.91180787357 103.03826834324,225.90761204675 103.02902846773,225.90430596643 103.0195090322,225.90192147196 103.00980171403,225.90048152733 103.0,225.9 102.04142135624,225.9 101.07071067812,224.92928932188 101.06343932842,224.92269895466 101.0555570233,224.91685303877 101.04713967368,224.91180787357 101.03826834324,224.90761204675 101.02902846773,224.90430596643 101.0195090322,224.90192147196 101.00980171403,224.90048152733 101.0,224.9 100.04142135624,224.9 97.1,221.95857864376 97.1,221.0 97.09951847267,220.99019828597 97.09807852804,220.9804909678 97.09569403357,220.97097153227 97.09238795325,220.96173165676 97.08819212643,220.95286032632 97.08314696123,220.9444429767 97.07730104534,220.93656067158 97.07071067812,220.92928932188 94.1,217.95857864376 94.1,216.0 94.09951847267,215.99019828597 94.09807852804,215.9804909678 94.09569403357,215.97097153227 94.09238795325,215.96173165676 94.08819212643,215.95286032632 94.08314696123,215.9444429767 94.07730104534,215.93656067158 94.07071067812,215.92928932188 93.1,214.95857864376 93.1,209.04142135624 94.07071067812,208.07071067812 94.07730104534,208.06343932842 94.08314696123,208.0555570233 94.08819212643,208.04713967368 94.09238795325,208.03826834324 94.09569403357,208.02902846773 94.09807852804,208.0195090322 94.09951847267,208.00980171403 94.1,208.0 94.1,206.04142135624 96.07071067812,204.07071067812 96.07730104534,204.06343932842 96.08314696123,204.0555570233 96.08819212643,204.04713967368 96.09238795325,204.03826834324 96.09569403357,204.02902846773 96.09807852804,204.0195090322 96.09951847267,204.00980171403 96.1,204.0 96.1,203.04142135624 100.07071067812,199.07071067812 100.07730104534,199.06343932842 100.08314696123,199.0555570233 100.08819212643,199.04713967368 100.09238795325,199.03826834324 100.09569403357,199.02902846773 100.09807852804,199.0195090322 100.09951847267,199.00980171403 100.1,199.0 100.1,198.04142135624 101.07071067812,197.07071067812 101.07730104534,197.06343932842 101.08314696123,197.0555570233 101.08819212643,197.04713967368 101.09238795325,197.03826834324 101.09569403357,197.02902846773 101.09807852804,197.0195090322 101.09951847267,197.00980171403 101.1,197.0 101.1,195.04142135624 102.07071067812,194.07071067812 102.07730104534,194.06343932842 102.08314696123,194.0555570233 102.08819212643,194.04713967368 102.09238795325,194.03826834324 102.09569403357,194.02902846773 102.09807852804,194.0195090322 102.09951847267,194.00980171403 102.1,194.0 102.1,191.0 102.09951847267,190.99019828597 102.09807852804,190.9804909678 102.09569403357,190.97097153227 102.09238795325,190.96173165676 102.08819212643,190.95286032632 102.08314696123,190.9444429767 102.07730104534,190.93656067158 102.07071067812,190.92928932188 101.1,189.95857864376 101.1,189.0 101.09951847267,188.99019828597 101.09807852804,188.9804909678 101.09569403357,188.97097153227 101.09238795325,188.96173165676 101.08819212643,188.95286032632 101.08314696123,188.9444429767 101.07730104534,188.93656067158 101.07071067812,188.92928932188 99.07071067812,186.92928932188 99.06343932842,186.92269895466 99.0555570233,186.91685303877 99.04713967368,186.91180787357 99.03826834324,186.90761204675 99.02902846773,186.90430596643 99.0195090322,186.90192147196 99.00980171403,186.90048152733 99.0,186.9 98.04142135624,186.9 97.07071067812,185.92928932188 97.06343932842,185.92269895466 97.0555570233,185.91685303877 97.04713967368,185.91180787357 97.03826834324,185.90761204675 97.02902846773,185.90430596643 97.0195090322,185.90192147196 97.00980171403,185.90048152733 97.0,185.9 93.04142135624,185.9 92.07071067812,184.92928932188 92.06343932842,184.92269895466 92.0555570233,184.91685303877 92.04713967368,184.91180787357 92.03826834324,184.90761204675 92.02902846773,184.90430596643 92.0195090322,184.90192147196 92.00980171403,184.90048152733 92.0,184.9 78.04142135624,184.9 77.07071067812,183.92928932188 77.06343932842,183.92269895466 77.0555570233,183.91685303877 77.04713967368,183.91180787357 77.03826834324,183.90761204675 77.02902846773,183.90430596643 77.0195090322,183.90192147196 77.00980171403,183.90048152733 77.0,183.9 68.04142135624,183.9 67.07071067812,182.92928932188 67.06343932842,182.92269895466 67.0555570233,182.91685303877 67.04713967368,182.91180787357 67.03826834324,182.90761204675 67.02902846773,182.90430596643 67.0195090322,182.90192147196 67.00980171403,182.90048152733 67.0,182.9 59.04142135624,182.9 58.07071067812,181.92928932188 58.06343932842,181.92269895466 58.0555570233,181.91685303877 58.04713967368,181.91180787357 58.03826834324,181.90761204675 58.02902846773,181.90430596643 58.0195090322,181.90192147196 58.00980171403,181.90048152733 58.0,181.9 50.04142135624,181.9 49.07071067812,180.92928932188 49.06343932842,180.92269895466 49.0555570233,180.91685303877 49.04713967368,180.91180787357 49.03826834324,180.90761204675 49.02902846773,180.90430596643 49.0195090322,180.90192147196 49.00980171403,180.90048152733 49.0,180.9 43.04142135624,180.9 42.1,179.95857864376 42.1,48.04142135624 43.07071067812,47.07071067812 43.07730104534,47.06343932842 43.08314696123,47.0555570233 43.08819212643,47.04713967368 43.09238795325,47.03826834324 43.09569403357,47.02902846773 43.09807852804,47.0195090322 43.09951847267,47.00980171403 43.1,47.0 43.1,46.04142135624 45.07071067812,44.07071067812 45.07730104534,44.06343932842 45.08314696123,44.0555570233 45.08819212643,44.04713967368 45.09238795325,44.03826834324 45.09569403357,44.02902846773 45.09807852804,44.0195090322 45.09951847267,44.00980171403 45.1,44.0 45.1,43.04142135624 47.07071067812,41.07071067812 47.07730104534,41.06343932842 47.08314696123,41.0555570233 47.08819212643,41.04713967368 47.09238795325,41.03826834324 47.09569403357,41.02902846773 47.09807852804,41.0195090322 47.09951847267,41.00980171403 47.1,41.0 47.09951847267,40.99019828597 47.09807852804,40.9804909678 47.09569403357,40.97097153227 47.09238795325,40.96173165676 47.08819212643,40.95286032632 47.08314696123,40.9444429767 47.07730104534,40.93656067158 47.07071067812,40.92928932188 47.06343932842,40.92269895466 47.0555570233,40.91685303877 47.04713967368,40.91180787357 47.03826834324,40.90761204675 47.02902846773,40.90430596643 47.0195090322,40.90192147196 47.00980171403,40.90048152733 47.0,40.9 46.99019828597,40.90048152733 46.9804909678,40.90192147196 46.97097153227,40.90430596643 46.96173165676,40.90761204675 46.95286032632,40.91180787357 46.9444429767,40.91685303877 46.93656067158,40.92269895466 46.92928932188,40.92928932188 43.92928932188,43.92928932188 43.92269895466,43.93656067158 43.91685303877,43.9444429767 43.91180787357,43.95286032632 43.90761204675,43.96173165676 43.90430596643,43.97097153227 43.90192147196,43.9804909678 43.90048152733,43.99019828597 43.9,44.0 43.9,44.95857864376 42.92928932188,45.92928932188 42.92269895466,45.93656067158 42.91685303877,45.9444429767 42.91180787357,45.95286032632 42.90761204675,45.96173165676 42.90430596643,45.97097153227 42.90192147196,45.9804909678 42.90048152733,45.99019828597 42.9,46.0 42.9,46.95857864376 41.92928932188,47.92928932188 41.92269895466,47.93656067158 41.91685303877,47.9444429767 41.91180787357,47.95286032632 41.90761204675,47.96173165676 41.90430596643,47.97097153227 41.90192147196,47.9804909678 41.90048152733,47.99019828597 41.9,48.0 41.9,611.95857864376 41.0,612.85857864376 40.1,611.95857864376 40.1,47.04142135624 41.07071067812,46.07071067812 41.07730104534,46.06343932842 41.08314696123,46.0555570233 41.08819212643,46.04713967368 41.09238795325,46.03826834324 41.09569403357,46.02902846773 41.09807852804,46.0195090322 41.09951847267,46.00980171403 41.1,46.0 41.1,45.04142135624 42.07071067812,44.07071067812 42.07730104534,44.06343932842 42.08314696123,44.0555570233 42.08819212643,44.04713967368 42.09238795325,44.03826834324 42.09569403357,44.02902846773 42.09807852804,44.0195090322 42.09951847267,44.00980171403 42.1,44.0 42.1,43.04142135624 46.04142135624,39.1 47.0,39.1 47.00980171403,39.09951847267 47.0195090322,39.09807852804 47.02902846773,39.09569403357 47.03826834324,39.09238795325 47.04713967368,39.08819212643 47.0555570233,39.08314696123 47.06343932842,39.07730104534 47.07071067812,39.07071067812 48.04142135624,38.1 49.0,38.1 49.00980171403,38.09951847267 49.0195090322,38.09807852804 49.02902846773,38.09569403357 49.03826834324,38.09238795325 49.04713967368,38.08819212643 49.0555570233,38.08314696123 49.06343932842,38.07730104534 49.07071067812,38.07071067812 50.04142135624,37.1 841.95857864376,37.1 842.92928932188,38.07071067812 842.93656067158,38.07730104534 842.9444429767,38.08314696123 842.95286032632,38.08819212643 842.96173165676,38.09238795325 842.97097153227,38.09569403357 842.9804909678,38.09807852804 842.99019828597,38.09951847267 843.0,38.1 844.95857864376,38.1 845.92928932188,39.07071067812 845.93656067158,39.07730104534 845.9444429767,39.08314696123 845.95286032632,39.08819212643 845.96173165676,39.09238795325 845.97097153227,39.09569403357 845.9804909678,39.09807852804 845.99019828597,39.09951847267 846.0,39.1 846.95857864376,39.1 849.9,42.04142135624 849.9,43.0 849.90048152733,43.00980171403 849.90192147196,43.0195090322 849.90430596643,43.02902846773 849.90761204675,43.03826834324 849.91180787357,43.04713967368 849.91685303877,43.0555570233 849.92269895466,43.06343932842 849.92928932188,43.07071067812 851.9,45.04142135624 851.9,615.95857864376 846.95857864376,620.9 846.0,620.9 845.99019828597,620.90048152733 845.9804909678,620.90192147196 845.97097153227,620.90430596643 845.96173165676,620.90761204675 845.95286032632,620.91180787357 845.9444429767,620.91685303877 845.93656067158,620.92269895466 845.92928932188,620.92928932188 844.95857864376,621.9 117.0,621.9 116.99019828597,621.90048152733 116.9804909678,621.90192147196 116.97097153227,621.90430596643 116.96173165676,621.90761204675 116.95286032632,621.91180787357 116.9444429767,621.91685303877 116.93656067158,621.92269895466 116.92928932188,621.92928932188 116.92269895466,621.93656067158 116.91685303877,621.9444429767 116.91180787357,621.95286032632 116.90761204675,621.96173165676 116.90430596643,621.97097153227 116.90192147196,621.9804909678 116.90048152733,621.99019828597 116.9,622.0 116.90048152733,622.00980171403 116.90192147196,622.0195090322 116.90430596643,622.02902846773 116.90761204675,622.03826834324 116.91180787357,622.04713967368 116.91685303877,622.0555570233 116.92269895466,622.06343932842 116.92928932188,622.07071067812 117.9,623.04142135624 117.9,626.0 117.90048152733,626.00980171403 117.90192147196,626.0195090322 117.90430596643,626.02902846773 117.90761204675,626.03826834324 117.91180787357,626.04713967368 117.91685303877,626.0555570233 117.92269895466,626.06343932842 117.92928932188,626.07071067812 118.9,627.04142135624 118.9,628.0 118.90048152733,628.00980171403 118.90192147196,628.0195090322 118.90430596643,628.02902846773 118.90761204675,628.03826834324 118.91180787357,628.04713967368 118.91685303877,628.0555570233 118.92269895466,628.06343932842 118.92928932188,628.07071067812 119.9,629.04142135624 119.9,630.0 119.90048152733,630.00980171403 119.90192147196,630.0195090322 119.90430596643,630.02902846773 119.90761204675,630.03826834324 119.91180787357,630.04713967368 119.91685303877,630.0555570233 119.92269895466,630.06343932842 119.92928932188,630.07071067812 120.9,631.04142135624 120.9,632.0 120.90048152733,632.00980171403 120.90192147196,632.0195090322 120.90430596643,632.02902846773 120.90761204675,632.03826834324 120.91180787357,632.04713967368 120.91685303877,632.0555570233 120.92269895466,632.06343932842 120.92928932188,632.07071067812 124.92928932188,636.07071067812 124.93656067158,636.07730104534 124.9444429767,636.08314696123 124.95286032632,636.08819212643 124.96173165676,636.09238795325 124.97097153227,636.09569403357 124.9804909678,636.09807852804 124.99019828597,636.09951847267 125.0,636.1 125.95857864376,636.1 126.92928932188,637.07071067812 126.93656067158,637.07730104534 126.9444429767,637.08314696123 126.95286032632,637.08819212643 126.96173165676,637.09238795325 126.97097153227,637.09569403357 126.9804909678,637.09807852804 126.99019828597,637.09951847267 127.0,637.1 127.95857864376,637.1 128.92928932188,638.07071067812 128.93656067158,638.07730104534 128.9444429767,638.08314696123 128.95286032632,638.08819212643 128.96173165676,638.09238795325 128.97097153227,638.09569403357 128.9804909678,638.09807852804 128.99019828597,638.09951847267 129.0,638.1 130.95857864376,638.1 131.92928932188,639.07071067812 131.93656067158,639.07730104534 131.9444429767,639.08314696123 131.95286032632,639.08819212643 131.96173165676,639.09238795325 131.97097153227,639.09569403357 131.9804909678,639.09807852804 131.99019828597,639.09951847267 132.0,639.1 141.0,639.1 141.00980171403,639.09951847267 141.0195090322,639.09807852804 141.02902846773,639.09569403357 141.03826834324,639.09238795325 141.04713967368,639.08819212643 141.0555570233,639.08314696123 141.06343932842,639.07730104534 141.07071067812,639.07071067812 142.04142135624,638.1 145.0,638.1 145.00980171403,638.09951847267 145.0195090322,638.09807852804 145.02902846773,638.09569403357 145.03826834324,638.09238795325 145.04713967368,638.08819212643 145.0555570233,638.08314696123 145.06343932842,638.07730104534 145.07071067812,638.07071067812 145.07730104534,638.06343932842 145.08314696123,638.0555570233 145.08819212643,638.04713967368 145.09238795325,638.03826834324 145.09569403357,638.02902846773 145.09807852804,638.0195090322 145.09951847267,638.00980171403 145.1,638.0 145.09951847267,637.99019828597 145.09807852804,637.9804909678 145.09569403357,637.97097153227 145.09238795325,637.96173165676 145.08819212643,637.95286032632 145.08314696123,637.9444429767 145.07730104534,637.93656067158 145.07071067812,637.92928932188 145.06343932842,637.92269895466 145.0555570233,637.91685303877 145.04713967368,637.91180787357 145.03826834324,637.90761204675 145.02902846773,637.90430596643 145.0195090322,637.90192147196 145.00980171403,637.90048152733 145.0,637.9 142.0,637.9 141.99019828597,637.90048152733 141.9804909678,637.90192147196 141.97097153227,637.90430596643 141.96173165676,637.90761204675 141.95286032632,637.91180787357 141.9444429767,637.91685303877 141.93656067158,637.92269895466 141.92928932188,637.92928932188 140.95857864376,638.9 132.04142135624,638.9 131.07071067812,637.92928932188 131.06343932842,637.92269895466 131.0555570233,637.91685303877 131.04713967368,637.91180787357 131.03826834324,637.90761204675 131.02902846773,637.90430596643 131.0195090322,637.90192147196 131.00980171403,637.90048152733 131.0,637.9 129.04142135624,637.9 127.07071067812,635.92928932188 127.06343932842,635.92269895466 127.0555570233,635.91685303877 127.04713967368,635.91180787357 127.03826834324,635.90761204675 127.02902846773,635.90430596643 127.0195090322,635.90192147196 127.00980171403,635.90048152733 127.0,635.9 126.04142135624,635.9 121.1,630.95857864376 121.1,630.0 121.09951847267,629.99019828597 121.09807852804,629.9804909678 121.09569403357,629.97097153227 121.09238795325,629.96173165676 121.08819212643,629.95286032632 121.08314696123,629.9444429767 121.07730104534,629.93656067158 121.07071067812,629.92928932188 119.1,627.95857864376 119.1,627.0 119.09951847267,626.99019828597 119.09807852804,626.9804909678 119.09569403357,626.97097153227 119.09238795325,626.96173165676 119.08819212643,626.95286032632 119.08314696123,626.9444429767 119.07730104534,626.93656067158 119.07071067812,626.92928932188 118.1,625.95857864376 118.1,623.04142135624 119.04142135624,622.1 845.0,622.1 845.00980171403,622.09951847267 845.0195090322,622.09807852804 845.02902846773,622.09569403357 845.03826834324,622.09238795325 845.04713967368,622.08819212643 845.0555570233,622.08314696123 845.06343932842,622.07730104534 845.07071067812,622.07071067812 846.04142135624,621.1 847.0,621.1 847.00980171403,621.09951847267 847.0195090322,621.09807852804 847.02902846773,621.09569403357 847.03826834324,621.09238795325 847.04713967368,621.08819212643 847.0555570233,621.08314696123 847.06343932842,621.07730104534 847.07071067812,621.07071067812 848.04142135624,620.1 849.0,620.1 849.00980171403,620.09951847267 849.0195090322,620.09807852804 849.02902846773,620.09569403357 849.03826834324,620.09238795325 849.04713967368,620.08819212643 849.0555570233,620.08314696123 849.06343932842,620.07730104534 849.07071067812,620.07071067812 850.07071067812,619.07071067812 850.07730104534,619.06343932842 850.08314696123,619.0555570233 850.08819212643,619.04713967368 850.09238795325,619.03826834324 850.09569403357,619.02902846773 850.09807852804,619.0195090322 850.09951847267,619.00980171403 850.1,619.0 850.1,618.04142135624 852.07071067812,616.07071067812 852.07730104534,616.06343932842 852.08314696123,616.0555570233 852.08819212643,616.04713967368 852.09238795325,616.03826834324 852.09569403357,616.02902846773 852.09807852804,616.0195090322 852.09951847267,616.00980171403 852.1,616.0 852.1,45.0 852.09951847267,44.99019828597 852.09807852804,44.9804909678 852.09569403357,44.97097153227 852.09238795325,44.96173165676 852.08819212643,44.95286032632 852.08314696123,44.9444429767 852.07730104534,44.93656067158 852.07071067812,44.92928932188 851.1,43.95857864376 851.1,43.0 851.09951847267,42.99019828597 851.09807852804,42.9804909678 851.09569403357,42.97097153227 851.09238795325,42.96173165676 851.08819212643,42.95286032632 851.08314696123,42.9444429767 851.07730104534,42.93656067158 851.07071067812,42.92928932188 847.07071067812,38.92928932188 847.06343932842,38.92269895466 847.0555570233,38.91685303877 847.04713967368,38.91180787357 847.03826834324,38.90761204675 847.02902846773,38.90430596643 847.0195090322,38.90192147196 847.00980171403,38.90048152733 847.0,38.9 846.04142135624,38.9 845.07071067812,37.92928932188 845.06343932842,37.92269895466 845.0555570233,37.91685303877 845.04713967368,37.91180787357 845.03826834324,37.90761204675 845.02902846773,37.90430596643 845.0195090322,37.90192147196 845.00980171403,37.90048152733 845.0,37.9 843.04142135624,37.9 842.07071067812,36.92928932188 842.06343932842,36.92269895466 842.0555570233,36.91685303877 842.04713967368,36.91180787357 842.03826834324,36.90761204675 842.02902846773,36.90430596643 842.0195090322,36.90192147196 842.00980171403,36.90048152733 842.0,36.9 49.0,36.9 48.99019828597,36.90048152733 48.9804909678,36.90192147196" stroke="black" /><polygon fill="none" points="881.055557023302,17.91685303876974 881.0471396736826,17.911807873565163 881.0382683432365,17.90761204674887 881.0290284677254,17.904305966426776 881.0195090322017,17.901921471959675 881.009801714033,17.90048152733278 881.0,17.9 880.990198285967,17.90048152733278 880.9804909677983,17.901921471959678 880.9709715322746,17.90430596642678 880.9617316567635,17.907612046748874 880.9528603263174,17.911807873565166 880.944442976698,17.916853038769748 880.9365606715836,17.922698954663726 880.9292893218814,17.929289321881345 880.9226989546637,17.93656067158364 880.9168530387698,17.944442976698042 880.9118078735652,17.952860326317403 880.9076120467489,17.961731656763494 880.9043059664268,17.970971532274554 880.9019214719597,17.98049096779839 880.9004815273328,17.990198285967043 880.9,18.0 880.9,19.0 880.9004815273328,19.009801714032957 880.9019214719597,19.019509032201615 880.9043059664268,19.02902846772545 880.9076120467489,19.038268343236513 880.9118078735652,19.047139673682604 880.9168530387698,19.055557023301965 880.9226989546637,19.06343932841637 880.9292893218814,19.070710678118655 881.9,20.041421356237276 881.9,21.0 881.9004815273328,21.009801714032957 881.9019214719597,21.019509032201615 881.9043059664268,21.02902846772545 881.9076120467489,21.038268343236513 881.9118078735652,21.047139673682604 881.9168530387698,21.055557023301965 881.9226989546637,21.06343932841637 881.9292893218814,21.070710678118655 882.9,22.041421356237276 882.9,23.0 882.9004815273328,23.009801714032957 882.9019214719597,23.019509032201615 882.9043059664268,23.02902846772545 882.9076120467489,23.038268343236513 882.9118078735652,23.047139673682604 882.9168530387698,23.055557023301965 882.9226989546637,23.06343932841637 882.9292893218814,23.070710678118655 884.9,25.041421356237276 884.9,27.0 884.9004815273328,27.009801714032957 884.9019214719597,27.019509032201615 884.9043059664268,27.02902846772545 884.9076120467489,27.038268343236513 884.9118078735652,27.047139673682604 884.9168530387698,27.055557023301965 884.9226989546637,27.06343932841637 884.9292893218814,27.070710678118655 885.9,28.041421356237276 885.9,368.0 885.9004815273328,368.00980171403296 885.9019214719597,368.0195090322016 885.9043059664268,368.0290284677254 885.9076120467489,368.0382683432365 885.9118078735652,368.0471396736826 885.9168530387698,368.05555702330196 885.9226989546637,368.06343932841634 885.9292893218814,368.07071067811864 886.9,369.04142135623727 886.9,369.95857864376273 885.9292893218814,370.92928932188136 885.9226989546637,370.93656067158366 885.9168530387698,370.94444297669804 885.9118078735652,370.9528603263174 885.9076120467489,370.9617316567635 885.9043059664268,370.9709715322746 885.9019214719597,370.9804909677984 885.9004815273328,370.99019828596704 885.9,371.0 885.9,379.0 885.9004815273328,379.00980171403296 885.9019214719597,379.0195090322016 885.9043059664268,379.0290284677254 885.9076120467489,379.0382683432365 885.9118078735652,379.0471396736826 885.9168530387698,379.05555702330196 885.9226989546637,379.06343932841634 885.9292893218814,379.07071067811864 886.9,380.04142135623727 886.9,381.95857864376273 885.9292893218814,382.92928932188136 885.9226989546637,382.93656067158366 885.9168530387698,382.94444297669804 885.9118078735652,382.9528603263174 885.9076120467489,382.9617316567635 885.9043059664268,382.9709715322746 885.9019214719597,382.9804909677984 885.9004815273328,382.99019828596704 885.9,383.0 885.9,491.0 885.9004815273328,491.00980171403296 885.9019214719597,491.0195090322016 885.9043059664268,491.0290284677254 885.9076120467489,491.0382683432365 885.9118078735652,491.0471396736826 885.9168530387698,491.05555702330196 885.9226989546637,491.06343932841634 885.9292893218814,491.07071067811864 886.9,492.04142135623727 886.9,494.95857864376273 885.9292893218814,495.92928932188136 885.9226989546637,495.93656067158366 885.9168530387698,495.94444297669804 885.9118078735652,495.9528603263174 885.9076120467489,495.9617316567635 885.9043059664268,495.9709715322746 885.9019214719597,495.9804909677984 885.9004815273328,495.99019828596704 885.9,496.0 885.9,533.0 885.9004815273328,533.009801714033 885.9019214719597,533.0195090322017 885.9043059664268,533.0290284677254 885.9076120467489,533.0382683432365 885.9118078735652,533.0471396736826 885.9168530387698,533.055557023302 885.9226989546637,533.0634393284164 885.9292893218814,533.0707106781186 886.8585786437627,534.0 885.9292893218814,534.9292893218814 885.9226989546637,534.9365606715836 885.9168530387698,534.944442976698 885.9118078735652,534.9528603263174 885.9076120467489,534.9617316567635 885.9043059664268,534.9709715322746 885.9019214719597,534.9804909677983 885.9004815273328,534.990198285967 885.9,535.0 885.9,551.0 885.9004815273328,551.009801714033 885.9019214719597,551.0195090322017 885.9043059664268,551.0290284677254 885.9076120467489,551.0382683432365 885.9118078735652,551.0471396736826 885.9168530387698,551.055557023302 885.9226989546637,551.0634393284164 885.9292893218814,551.0707106781186 886.8585786437627,552.0 885.9292893218814,552.9292893218814 885.9226989546637,552.9365606715836 885.9168530387698,552.944442976698 885.9118078735652,552.9528603263174 885.9076120467489,552.9617316567635 885.9043059664268,552.9709715322746 885.9019214719597,552.9804909677983 885.9004815273328,552.990198285967 885.9,553.0 885.9,583.0 885.9004815273328,583.009801714033 885.9019214719597,583.0195090322017 885.9043059664268,583.0290284677254 885.9076120467489,583.0382683432365 885.9118078735652,583.0471396736826 885.9168530387698,583.055557023302 885.9226989546637,583.0634393284164 885.9292893218814,583.0707106781186 886.9,584.0414213562373 886.9,589.9585786437627 885.9292893218814,590.9292893218814 885.9226989546637,590.9365606715836 885.9168530387698,590.944442976698 885.9118078735652,590.9528603263174 885.9076120467489,590.9617316567635 885.9043059664268,590.9709715322746 885.9019214719597,590.9804909677983 885.9004815273328,590.990198285967 885.9,591.0 885.9,622.0 885.9004815273328,622.009801714033 885.9019214719597,622.0195090322017 885.9043059664268,622.0290284677254 885.9076120467489,622.0382683432365 885.9118078735652,622.0471396736826 885.9168530387698,622.055557023302 885.9226989546637,622.0634393284164 885.9292893218814,622.0707106781186 886.9,623.0414213562373 886.9,629.9585786437627 885.9292893218814,630.9292893218814 885.9226989546637,630.9365606715836 885.9168530387698,630.944442976698 885.9118078735652,630.9528603263174 885.9076120467489,630.9617316567635 885.9043059664268,630.9709715322746 885.9019214719597,630.9804909677983 885.9004815273328,630.990198285967 885.9,631.0 885.9,640.9585786437627 884.9292893218814,641.9292893218814 884.9226989546637,641.9365606715836 884.9168530387698,641.944442976698 884.9118078735652,641.9528603263174 884.9076120467489,641.9617316567635 884.9043059664268,641.9709715322746 884.9019214719597,641.9804909677983 884.9004815273328,641.990198285967 884.9,642.0 884.9,644.9585786437627 883.9292893218814,645.9292893218814 883.9226989546637,645.9365606715836 883.9168530387698,645.944442976698 883.9118078735652,645.9528603263174 883.9076120467489,645.9617316567635 883.9043059664268,645.9709715322746 883.9019214719597,645.9804909677983 883.9004815273328,645.990198285967 883.9,646.0 883.9,646.9585786437627 882.9292893218814,647.9292893218814 882.9226989546637,647.9365606715836 882.9168530387698,647.944442976698 882.9118078735652,647.9528603263174 882.9076120467489,647.9617316567635 882.9043059664268,647.9709715322746 882.9019214719597,647.9804909677983 882.9004815273328,647.990198285967 882.9,648.0 882.9,648.9585786437627 880.9292893218814,650.9292893218814 880.9226989546637,650.9365606715836 880.9168530387698,650.944442976698 880.9118078735652,650.9528603263174 880.9076120467489,650.9617316567635 880.9043059664268,650.9709715322746 880.9019214719597,650.9804909677983 880.9004815273328,650.990198285967 880.9,651.0 880.9,651.9585786437627 879.9292893218814,652.9292893218814 879.9226989546637,652.9365606715836 879.9168530387698,652.944442976698 879.9118078735652,652.9528603263174 879.9076120467489,652.9617316567635 879.9043059664268,652.9709715322746 879.9019214719597,652.9804909677983 879.9004815273328,652.990198285967 879.9,653.0 879.9,653.9585786437627 877.9585786437627,655.9 877.0,655.9 876.990198285967,655.9004815273328 876.9804909677983,655.9019214719597 876.9709715322746,655.9043059664268 876.9617316567635,655.9076120467489 876.9528603263174,655.9118078735652 876.944442976698,655.9168530387698 876.9365606715836,655.9226989546637 876.9292893218814,655.9292893218814 872.9585786437627,659.9 872.0,659.9 871.990198285967,659.9004815273328 871.9804909677983,659.9019214719597 871.9709715322746,659.9043059664268 871.9617316567635,659.9076120467489 871.9528603263174,659.9118078735652 871.944442976698,659.9168530387698 871.9365606715836,659.9226989546637 871.9292893218814,659.9292893218814 869.9585786437627,661.9 869.0,661.9 868.990198285967,661.9004815273328 868.9804909677983,661.9019214719597 868.9709715322746,661.9043059664268 868.9617316567635,661.9076120467489 868.9528603263174,661.9118078735652 868.944442976698,661.9168530387698 868.9365606715836,661.9226989546637 868.9292893218814,661.9292893218814 867.9585786437627,662.9 866.0,662.9 865.990198285967,662.9004815273328 865.9804909677983,662.9019214719597 865.9709715322746,662.9043059664268 865.9617316567635,662.9076120467489 865.9528603263174,662.9118078735652 865.944442976698,662.9168530387698 865.9365606715836,662.9226989546637 865.9292893218814,662.9292893218814 864.9585786437627,663.9 863.0,663.9 862.990198285967,663.9004815273328 862.9804909677983,663.9019214719597 862.9709715322746,663.9043059664268 862.9617316567635,663.9076120467489 862.9528603263174,663.9118078735652 862.944442976698,663.9168530387698 862.9365606715836,663.9226989546637 862.9292893218814,663.9292893218814 861.9585786437627,664.9 30.041421356237276,664.9 29.070710678118655,663.9292893218814 29.06343932841637,663.9226989546637 29.055557023301965,663.9168530387698 29.047139673682604,663.9118078735652 29.038268343236513,663.9076120467489 29.02902846772545,663.9043059664268 29.019509032201615,663.9019214719597 29.009801714032957,663.9004815273328 29.0,663.9 25.041421356237276,663.9 23.070710678118655,661.9292893218814 23.06343932841637,661.9226989546637 23.055557023301965,661.9168530387698 23.047139673682604,661.9118078735652 23.038268343236513,661.9076120467489 23.02902846772545,661.9043059664268 23.019509032201615,661.9019214719597 23.009801714032957,661.9004815273328 23.0,661.9 22.041421356237276,661.9 20.070710678118655,659.9292893218814 20.06343932841637,659.9226989546637 20.055557023301965,659.9168530387698 20.047139673682604,659.9118078735652 20.038268343236513,659.9076120467489 20.02902846772545,659.9043059664268 20.019509032201615,659.9019214719597 20.009801714032957,659.9004815273328 20.0,659.9 19.041421356237276,659.9 15.070710678118655,655.9292893218814 15.06343932841637,655.9226989546637 15.055557023301965,655.9168530387698 15.047139673682604,655.9118078735652 15.038268343236512,655.9076120467489 15.02902846772545,655.9043059664268 15.019509032201615,655.9019214719597 15.009801714032957,655.9004815273328 15.0,655.9 14.041421356237276,655.9 12.1,653.9585786437627 12.1,653.0 12.099518472667219,652.990198285967 12.098078528040324,652.9804909677983 12.095694033573222,652.9709715322746 12.09238795325113,652.9617316567635 12.088192126434837,652.9528603263174 12.083146961230257,652.944442976698 12.077301045336277,652.9365606715836 12.070710678118655,652.9292893218814 11.070710678118655,651.9292893218814 11.06343932841637,651.9226989546637 11.055557023301965,651.9168530387698 11.047139673682606,651.9118078735652 11.038268343236515,651.9076120467489 11.029028467725452,651.9043059664268 11.019509032201618,651.9019214719597 11.009801714032962,651.9004815273328 11.000000000000005,651.9 10.990198285967049,651.9004815273328 10.980490967798392,651.9019214719597 10.970971532274557,651.9043059664268 10.961731656763494,651.9076120467489 10.952860326317403,651.9118078735652 10.944442976698042,651.9168530387698 10.936560671583637,651.9226989546637 10.929289321881347,651.9292893218814 10.922698954663728,651.9365606715836 10.916853038769746,651.944442976698 10.911807873565165,651.9528603263174 10.907612046748872,651.9617316567635 10.90430596642678,651.9709715322746 10.901921471959676,651.9804909677983 10.900481527332781,651.990198285967 10.9,652.0 10.9,653.0 10.900481527332781,653.009801714033 10.901921471959676,653.0195090322017 10.904305966426778,653.0290284677254 10.90761204674887,653.0382683432365 10.911807873565163,653.0471396736826 10.916853038769743,653.055557023302 10.922698954663723,653.0634393284164 10.929289321881345,653.0707106781186 11.9,654.0414213562373 11.9,655.0 11.900481527332781,655.009801714033 11.901921471959676,655.0195090322017 11.904305966426778,655.0290284677254 11.90761204674887,655.0382683432365 11.911807873565163,655.0471396736826 11.916853038769743,655.055557023302 11.922698954663723,655.0634393284164 11.929289321881345,655.0707106781186 12.929289321881345,656.0707106781186 12.93656067158363,656.0773010453363 12.944442976698035,656.0831469612302 12.952860326317396,656.0881921264348 12.961731656763488,656.0923879532511 12.97097153227455,656.0956940335732 12.980490967798385,656.0980785280403 12.990198285967043,656.0995184726672 13.0,656.1 13.958578643762724,656.1 17.929289321881345,660.0707106781186 17.93656067158363,660.0773010453363 17.944442976698035,660.0831469612302 17.952860326317396,660.0881921264348 17.961731656763487,660.0923879532511 17.97097153227455,660.0956940335732 17.980490967798385,660.0980785280403 17.990198285967043,660.0995184726672 18.0,660.1 18.958578643762724,660.1 20.929289321881345,662.0707106781186 20.93656067158363,662.0773010453363 20.944442976698035,662.0831469612302 20.952860326317396,662.0881921264348 20.961731656763487,662.0923879532511 20.97097153227455,662.0956940335732 20.980490967798385,662.0980785280403 20.990198285967043,662.0995184726672 21.0,662.1 21.958578643762724,662.1 22.929289321881345,663.0707106781186 22.93656067158363,663.0773010453363 22.944442976698035,663.0831469612302 22.952860326317396,663.0881921264348 22.961731656763487,663.0923879532511 22.97097153227455,663.0956940335732 22.980490967798385,663.0980785280403 22.990198285967043,663.0995184726672 23.0,663.1 23.958578643762724,663.1 24.929289321881345,664.0707106781186 24.93656067158363,664.0773010453363 24.944442976698035,664.0831469612302 24.952860326317396,664.0881921264348 24.961731656763487,664.0923879532511 24.97097153227455,664.0956940335732 24.980490967798385,664.0980785280403 24.990198285967043,664.0995184726672 25.0,664.1 28.958578643762724,664.1 29.929289321881345,665.0707106781186 29.93656067158363,665.0773010453363 29.944442976698035,665.0831469612302 29.952860326317396,665.0881921264348 29.961731656763487,665.0923879532511 29.97097153227455,665.0956940335732 29.980490967798385,665.0980785280403 29.990198285967043,665.0995184726672 30.0,665.1 862.0,665.1 862.009801714033,665.0995184726672 862.0195090322017,665.0980785280403 862.0290284677254,665.0956940335732 862.0382683432365,665.0923879532511 862.0471396736826,665.0881921264348 862.055557023302,665.0831469612302 862.0634393284164,665.0773010453363 862.0707106781186,665.0707106781186 863.0414213562373,664.1 865.0,664.1 865.009801714033,664.0995184726672 865.0195090322017,664.0980785280403 865.0290284677254,664.0956940335732 865.0382683432365,664.0923879532511 865.0471396736826,664.0881921264348 865.055557023302,664.0831469612302 865.0634393284164,664.0773010453363 865.0707106781186,664.0707106781186 866.0414213562373,663.1 869.0,663.1 869.009801714033,663.0995184726672 869.0195090322017,663.0980785280403 869.0290284677254,663.0956940335732 869.0382683432365,663.0923879532511 869.0471396736826,663.0881921264348 869.055557023302,663.0831469612302 869.0634393284164,663.0773010453363 869.0707106781186,663.0707106781186 871.0414213562373,661.1 872.0,661.1 872.009801714033,661.0995184726672 872.0195090322017,661.0980785280403 872.0290284677254,661.0956940335732 872.0382683432365,661.0923879532511 872.0471396736826,661.0881921264348 872.055557023302,661.0831469612302 872.0634393284164,661.0773010453363 872.0707106781186,661.0707106781186 873.0414213562373,660.1 874.0,660.1 874.009801714033,660.0995184726672 874.0195090322017,660.0980785280403 874.0290284677254,660.0956940335732 874.0382683432365,660.0923879532511 874.0471396736826,660.0881921264348 874.055557023302,660.0831469612302 874.0634393284164,660.0773010453363 874.0707106781186,660.0707106781186 878.0414213562373,656.1 879.0,656.1 879.009801714033,656.0995184726672 879.0195090322017,656.0980785280403 879.0290284677254,656.0956940335732 879.0382683432365,656.0923879532511 879.0471396736826,656.0881921264348 879.055557023302,656.0831469612302 879.0634393284164,656.0773010453363 879.0707106781186,656.0707106781186 880.0707106781186,655.0707106781186 880.0773010453363,655.0634393284164 880.0831469612302,655.055557023302 880.0881921264348,655.0471396736826 880.0923879532511,655.0382683432365 880.0956940335732,655.0290284677254 880.0980785280403,655.0195090322017 880.0995184726672,655.009801714033 880.1,655.0 880.1,654.0414213562373 881.0707106781186,653.0707106781186 881.0773010453363,653.0634393284164 881.0831469612302,653.055557023302 881.0881921264348,653.0471396736826 881.0923879532511,653.0382683432365 881.0956940335732,653.0290284677254 881.0980785280403,653.0195090322017 881.0995184726672,653.009801714033 881.1,653.0 881.1,652.0414213562373 882.0707106781186,651.0707106781186 882.0773010453363,651.0634393284164 882.0831469612302,651.055557023302 882.0881921264348,651.0471396736826 882.0923879532511,651.0382683432365 882.0956940335732,651.0290284677254 882.0980785280403,651.0195090322017 882.0995184726672,651.009801714033 882.1,651.0 882.1,650.0414213562373 884.0707106781186,648.0707106781186 884.0773010453363,648.0634393284164 884.0831469612302,648.055557023302 884.0881921264348,648.0471396736826 884.0923879532511,648.0382683432365 884.0956940335732,648.0290284677254 884.0980785280403,648.0195090322017 884.0995184726672,648.009801714033 884.1,648.0 884.1,646.0414213562373 885.0707106781186,645.0707106781186 885.0773010453363,645.0634393284164 885.0831469612302,645.055557023302 885.0881921264348,645.0471396736826 885.0923879532511,645.0382683432365 885.0956940335732,645.0290284677254 885.0980785280403,645.0195090322017 885.0995184726672,645.009801714033 885.1,645.0 885.1,642.0414213562373 886.0707106781186,641.0707106781186 886.0773010453363,641.0634393284164 886.0831469612302,641.055557023302 886.0881921264348,641.0471396736826 886.0923879532511,641.0382683432365 886.0956940335732,641.0290284677254 886.0980785280403,641.0195090322017 886.0995184726672,641.009801714033 886.1,641.0 886.1,631.0414213562373 887.0707106781186,630.0707106781186 887.0773010453363,630.0634393284164 887.0831469612302,630.055557023302 887.0881921264348,630.0471396736826 887.0923879532511,630.0382683432365 887.0956940335732,630.0290284677254 887.0980785280403,630.0195090322017 887.0995184726672,630.009801714033 887.1,630.0 887.1,623.0 887.0995184726672,622.990198285967 887.0980785280403,622.9804909677983 887.0956940335732,622.9709715322746 887.0923879532511,622.9617316567635 887.0881921264348,622.9528603263174 887.0831469612302,622.944442976698 887.0773010453363,622.9365606715836 887.0707106781186,622.9292893218814 886.1,621.9585786437627 886.1,591.0414213562373 887.0707106781186,590.0707106781186 887.0773010453363,590.0634393284164 887.0831469612302,590.055557023302 887.0881921264348,590.0471396736826 887.0923879532511,590.0382683432365 887.0956940335732,590.0290284677254 887.0980785280403,590.0195090322017 887.0995184726672,590.009801714033 887.1,590.0 887.1,584.0 887.0995184726672,583.990198285967 887.0980785280403,583.9804909677983 887.0956940335732,583.9709715322746 887.0923879532511,583.9617316567635 887.0881921264348,583.9528603263174 887.0831469612302,583.944442976698 887.0773010453363,583.9365606715836 887.0707106781186,583.9292893218814 886.1,582.9585786437627 886.1,553.0414213562373 887.0707106781186,552.0707106781186 887.0773010453363,552.0634393284164 887.0831469612302,552.055557023302 887.0881921264348,552.0471396736826 887.0923879532511,552.0382683432365 887.0956940335732,552.0290284677254 887.0980785280403,552.0195090322017 887.0995184726672,552.009801714033 887.1,552.0 887.0995184726672,551.990198285967 887.0980785280403,551.9804909677983 887.0956940335732,551.9709715322746 887.0923879532511,551.9617316567635 887.0881921264348,551.9528603263174 887.0831469612302,551.944442976698 887.0773010453363,551.9365606715836 887.0707106781186,551.9292893218814 886.1,550.9585786437627 886.1,535.0414213562373 887.0707106781186,534.0707106781186 887.0773010453363,534.0634393284164 887.0831469612302,534.055557023302 887.0881921264348,534.0471396736826 887.0923879532511,534.0382683432365 887.0956940335732,534.0290284677254 887.0980785280403,534.0195090322017 887.0995184726672,534.009801714033 887.1,534.0 887.0995184726672,533.990198285967 887.0980785280403,533.9804909677983 887.0956940335732,533.9709715322746 887.0923879532511,533.9617316567635 887.0881921264348,533.9528603263174 887.0831469612302,533.944442976698 887.0773010453363,533.9365606715836 887.0707106781186,533.9292893218814 886.1,532.9585786437627 886.1,496.04142135623727 887.0707106781186,495.07071067811864 887.0773010453363,495.06343932841634 887.0831469612302,495.05555702330196 887.0881921264348,495.0471396736826 887.0923879532511,495.0382683432365 887.0956940335732,495.0290284677254 887.0980785280403,495.0195090322016 887.0995184726672,495.00980171403296 887.1,495.0 887.1,492.0 887.0995184726672,491.99019828596704 887.0980785280403,491.9804909677984 887.0956940335732,491.9709715322746 887.0923879532511,491.9617316567635 887.0881921264348,491.9528603263174 887.0831469612302,491.94444297669804 887.0773010453363,491.93656067158366 887.0707106781186,491.92928932188136 886.1,490.95857864376273 886.1,383.04142135623727 887.0707106781186,382.07071067811864 887.0773010453363,382.06343932841634 887.0831469612302,382.05555702330196 887.0881921264348,382.0471396736826 887.0923879532511,382.0382683432365 887.0956940335732,382.0290284677254 887.0980785280403,382.0195090322016 887.0995184726672,382.00980171403296 887.1,382.0 887.1,380.0 887.0995184726672,379.99019828596704 887.0980785280403,379.9804909677984 887.0956940335732,379.9709715322746 887.0923879532511,379.9617316567635 887.0881921264348,379.9528603263174 887.0831469612302,379.94444297669804 887.0773010453363,379.93656067158366 887.0707106781186,379.92928932188136 886.1,378.95857864376273 886.1,371.04142135623727 887.0707106781186,370.07071067811864 887.0773010453363,370.06343932841634 887.0831469612302,370.05555702330196 887.0881921264348,370.0471396736826 887.0923879532511,370.0382683432365 887.0956940335732,370.0290284677254 887.0980785280403,370.0195090322016 887.0995184726672,370.00980171403296 887.1,370.0 887.1,369.0 887.0995184726672,368.99019828596704 887.0980785280403,368.9804909677984 887.0956940335732,368.9709715322746 887.0923879532511,368.9617316567635 887.0881921264348,368.9528603263174 887.0831469612302,368.94444297669804 887.0773010453363,368.93656067158366 887.0707106781186,368.92928932188136 886.1,367.95857864376273 886.1,28.0 886.0995184726672,27.990198285967043 886.0980785280403,27.980490967798385 886.0956940335732,27.97097153227455 886.0923879532511,27.961731656763487 886.0881921264348,27.952860326317396 886.0831469612302,27.944442976698035 886.0773010453363,27.93656067158363 886.0707106781186,27.929289321881345 885.1,26.958578643762724 885.1,25.0 885.0995184726672,24.990198285967043 885.0980785280403,24.980490967798385 885.0956940335732,24.97097153227455 885.0923879532511,24.961731656763487 885.0881921264348,24.952860326317396 885.0831469612302,24.944442976698035 885.0773010453363,24.93656067158363 885.0707106781186,24.929289321881345 884.1,23.958578643762724 884.1,23.0 884.0995184726672,22.990198285967043 884.0980785280403,22.980490967798385 884.0956940335732,22.97097153227455 884.0923879532511,22.961731656763487 884.0881921264348,22.952860326317396 884.0831469612302,22.944442976698035 884.0773010453363,22.93656067158363 884.0707106781186,22.929289321881345 883.1,21.958578643762724 883.1,21.0 883.0995184726672,20.990198285967043 883.0980785280403,20.980490967798385 883.0956940335732,20.97097153227455 883.0923879532511,20.961731656763487 883.0881921264348,20.952860326317396 883.0831469612302,20.944442976698035 883.0773010453363,20.93656067158363 883.0707106781186,20.929289321881345 882.1,19.958578643762724 882.1,19.0 882.0995184726672,18.990198285967043 882.0980785280403,18.980490967798385 882.0956940335732,18.97097153227455 882.0923879532511,18.961731656763487 882.0881921264348,18.952860326317396 882.0831469612302,18.944442976698035 882.0773010453363,18.93656067158363 882.0707106781186,18.929289321881345 881.0707106781186,17.929289321881345 881.0634393284164,17.922698954663723 881.055557023302,17.91685303876974" stroke="black" /></svg>